<?xml version="1.0" encoding="UTF-8" standalone="no"?>
<!-- Created with Inkscape (http://www.inkscape.org/) -->

<svg
   width="42.814831mm"
   height="6.2601056mm"
   version="1.1"
   viewBox="0 0 42.814829 6.2601055"
   id="svg12"
   sodipodi:docname="brand-aslant-light.svg"
   inkscape:version="1.3 (0e150ed6c4, 2023-07-21)"
   xmlns:inkscape="http://www.inkscape.org/namespaces/inkscape"
   xmlns:sodipodi="http://sodipodi.sourceforge.net/DTD/sodipodi-0.dtd"
   xmlns="http://www.w3.org/2000/svg"
   xmlns:svg="http://www.w3.org/2000/svg">
  <defs
     id="defs12">
    <linearGradient
       id="swatch12"
       inkscape:swatch="solid">
      <stop
         style="stop-color:#ffffff;stop-opacity:1;"
         offset="0"
         id="stop12" />
    </linearGradient>
  </defs>
  <sodipodi:namedview
     id="namedview12"
     pagecolor="#ffffff"
     bordercolor="#666666"
     borderopacity="1.0"
     inkscape:showpageshadow="2"
     inkscape:pageopacity="0.0"
     inkscape:pagecheckerboard="0"
     inkscape:deskcolor="#d1d1d1"
     inkscape:document-units="mm"
     inkscape:zoom="11.340974"
     inkscape:cx="103.20983"
     inkscape:cy="22.220314"
     inkscape:window-width="3840"
     inkscape:window-height="2092"
     inkscape:window-x="0"
     inkscape:window-y="0"
     inkscape:window-maximized="1"
     inkscape:current-layer="svg12" />
  <g
     transform="translate(-56.7357,-103.8284)"
     id="g12">
    <g
       transform="matrix(0.26446,-0.0081198,0.0081198,0.26446,56.813,104.09)"
       clip-rule="evenodd"
       fill-rule="evenodd"
       stroke-linejoin="round"
       stroke-miterlimit="2"
       id="g11">
      <g
         fill="#221f20"
         id="g10">
        <path
           class="cls-1"
           d="m 56.836,14.466 c 0,3.36 -2.65,5.57 -6.16,5.57 -3.51,0 -6.13,-2.21 -6.13,-5.57 0,-3.36 2.63,-5.57 6.16,-5.57 3.53,0 6.13,2.2 6.13,5.57 z m -2.34,0 a 3.83,3.83 0 1 0 -3.82,3.6 3.51,3.51 0 0 0 3.87,-3.6 z"
           id="path1"
           style="stroke:#ffffff;stroke-width:1.13385;stroke-linecap:square;stroke-linejoin:miter;stroke-miterlimit:3;stroke-dasharray:0.2834625,0.2834625;stroke-opacity:1;paint-order:markers stroke fill;stroke-dashoffset:0" />
        <path
           class="cls-1"
           d="m 65.416,20.036 a 4.86,4.86 0 0 1 -3.65,-1.49 v 5.38 h -2.22 v -14.7 h 2.25 v 1.22 a 4.83,4.83 0 0 1 3.65,-1.55 c 3.57,0 5.87,2.18 5.87,5.57 0,3.39 -2.46,5.57 -5.9,5.57 z m -0.24,-9.17 c -2.23,0 -3.58,1.06 -3.58,3.6 0,2.54 1.35,3.6 3.58,3.6 a 3.54,3.54 0 0 0 3.77,-3.6 3.44,3.44 0 0 0 -3.77,-3.6 z"
           id="path2"
           style="stroke:#ffffff;stroke-width:1.13385;stroke-linecap:square;stroke-linejoin:miter;stroke-miterlimit:3;stroke-dasharray:0.2834625,0.2834625;stroke-opacity:1;paint-order:markers stroke fill;stroke-dashoffset:0" />
        <path
           class="cls-1"
           d="m 84.346,15.106 h -8.51 a 3.41,3.41 0 0 0 3.55,3 8.05,8.05 0 0 0 4,-1 v 2 a 8.61,8.61 0 0 1 -4,0.85 5.5,5.5 0 0 1 -5.78,-5.57 5.3,5.3 0 0 1 5.33,-5.57 c 3.22,0 5.4,1.94 5.4,5.79 z m -2.2,-1.78 a 2.88,2.88 0 0 0 -3.2,-2.53 3.09,3.09 0 0 0 -3,2.53 z"
           id="path3"
           style="stroke:#ffffff;stroke-width:1.13385;stroke-linecap:square;stroke-linejoin:miter;stroke-miterlimit:3;stroke-dasharray:0.2834625,0.2834625;stroke-opacity:1;paint-order:markers stroke fill;stroke-dashoffset:0" />
        <path
           class="cls-1"
           d="m 95.026,19.726 v -6.7 c 0,-1.45 -0.54,-2.16 -2.23,-2.16 -2.2,0 -3.51,1.07 -3.51,2.85 v 6 h -2.25 V 9.226 h 2.25 v 1.26 a 4.48,4.48 0 0 1 3.51,-1.59 c 2.89,0 4.48,1.43 4.48,3.87 v 7 z"
           id="path4"
           style="stroke:#ffffff;stroke-width:1.13385;stroke-linecap:square;stroke-linejoin:miter;stroke-miterlimit:3;stroke-dasharray:0.2834625,0.2834625;stroke-opacity:1;paint-order:markers stroke fill;stroke-dashoffset:0" />
        <path
           class="cls-1"
           d="m 109.12,16.996 c 0,1.95 -1.61,3 -5,3 a 9,9 0 0 1 -4.07,-0.85 v -2.05 a 7.94,7.94 0 0 0 4.07,1 c 2,0 2.69,-0.4 2.69,-1.14 0,-0.94 -1.12,-1.3 -3,-1.82 -1.88,-0.52 -3.74,-1.33 -3.74,-3.43 0,-1.8 1.72,-2.85 4.78,-2.85 a 7.94,7.94 0 0 1 3.77,0.81 v 2.11 a 6.57,6.57 0 0 0 -3.74,-1 c -1.43,0 -2.5,0.28 -2.5,1 0,0.72 0.74,1 2.71,1.63 1.97,0.63 4.03,1.14 4.03,3.59 z"
           id="path5"
           style="stroke:#ffffff;stroke-width:1.13385;stroke-linecap:square;stroke-linejoin:miter;stroke-miterlimit:3;stroke-dasharray:0.2834625,0.2834625;stroke-opacity:1;paint-order:markers stroke fill;stroke-dashoffset:0" />
        <path
           class="cls-1"
           d="m 121.04,9.7462 v 2.12 a 6.39,6.39 0 0 0 -3.46,-1 c -2.23,0 -3.88,1.25 -3.88,3.6 0,2.35 1.68,3.6 3.88,3.6 a 6.56,6.56 0 0 0 3.46,-1 v 2.15 a 7.34,7.34 0 0 1 -3.46,0.83 c -3.65,0 -6.21,-2.25 -6.21,-5.57 0,-3.5 2.47,-5.57 6.21,-5.57 a 6.89,6.89 0 0 1 3.46,0.84 z"
           id="path6"
           style="stroke:#ffffff;stroke-width:1.13385;stroke-linecap:square;stroke-linejoin:miter;stroke-miterlimit:3;stroke-dasharray:0.2834625,0.2834625;stroke-opacity:1;paint-order:markers stroke fill;stroke-dashoffset:0" />
        <path
           class="cls-1"
           d="m 130.96,9.2262 v 2.18 a 3.53,3.53 0 0 0 -1.72,-0.44 2.92,2.92 0 0 0 -3.27,3.17 v 5.59 h -2.25 v -10.5 h 2.25 v 1.47 a 3.94,3.94 0 0 1 3.29,-1.8 3.8,3.8 0 0 1 1.7,0.33 z"
           id="path7"
           style="stroke:#ffffff;stroke-width:1.13385;stroke-linecap:square;stroke-linejoin:miter;stroke-miterlimit:3;stroke-dasharray:0.2834625,0.2834625;stroke-opacity:1;paint-order:markers stroke fill;stroke-dashoffset:0" />
        <path
           class="cls-1"
           d="m 134.33,7.5462 a 1.36,1.36 0 1 1 1.35,-1.34 1.35,1.35 0 0 1 -1.35,1.34 z m -1.12,1.67 h 2.25 v 10.5 h -2.25 z"
           id="path8"
           style="stroke:#ffffff;stroke-width:1.13385;stroke-linecap:square;stroke-linejoin:miter;stroke-miterlimit:3;stroke-dasharray:0.2834625,0.2834625;stroke-opacity:1;paint-order:markers stroke fill;stroke-dashoffset:0" />
        <path
           class="cls-1"
           d="m 144.55,20.036 a 4.86,4.86 0 0 1 -3.64,-1.49 v 5.38 h -2.25 v -14.7 h 2.25 v 1.22 a 4.83,4.83 0 0 1 3.64,-1.55 c 3.56,0 5.86,2.18 5.86,5.57 0,3.39 -2.41,5.57 -5.86,5.57 z m -0.24,-9.17 c -2.24,0 -3.59,1.06 -3.59,3.6 0,2.54 1.35,3.6 3.59,3.6 a 3.54,3.54 0 0 0 3.77,-3.6 3.44,3.44 0 0 0 -3.76,-3.6 z"
           id="path9"
           style="stroke:#ffffff;stroke-width:1.13385;stroke-linecap:square;stroke-linejoin:miter;stroke-miterlimit:3;stroke-dasharray:0.2834625,0.2834625;stroke-opacity:1;paint-order:markers stroke fill;stroke-dashoffset:0" />
        <path
           class="cls-1"
           d="m 160.43,17.216 v 2.18 a 5.71,5.71 0 0 1 -2.88,0.64 c -2.49,0 -3.73,-1.28 -3.73,-3.82 v -5.06 h -2.1 v -1.93 h 2.1 v -2.44 h 2.25 v 2.44 h 3.72 v 1.93 h -3.72 v 5.16 c 0,1.14 0.53,1.75 1.69,1.75 a 4.74,4.74 0 0 0 2.67,-0.85 z"
           id="path10"
           style="stroke:#ffffff;stroke-width:1.13385;stroke-linecap:square;stroke-linejoin:miter;stroke-miterlimit:3;stroke-dasharray:0.2834625,0.2834625;stroke-opacity:1;paint-order:markers stroke fill;stroke-dashoffset:0" />
      </g>
      <path
         class="cls-2"
         d="m 19.016,0.66615 c -9,-2.1 -17.47,0.93 -18.83,6.77 -1.36,5.84 4.88,12.27 13.92,14.37 0.41,0.1 0.82,0.17 1.23,0.25 l -5.43,-9.61 1.78,-1 4.8,8.49 v -12.32 h 2 v 12.36 l 3.83,-6.79 1.79,1 -4.67,8.28 c 6.8,0.09 12.38,-2.77 13.46,-7.42 1.4,-5.84 -4.83,-12.28 -13.88,-14.38 z"
         fill="#539350"
         id="path11"
         style="stroke:#ffffff;stroke-width:1.13385;stroke-linecap:square;stroke-linejoin:miter;stroke-miterlimit:3;stroke-dasharray:0.2834625,0.2834625;stroke-opacity:1;paint-order:markers stroke fill;stroke-dashoffset:0" />
    </g>
  </g>
</svg>
