<?xml version="1.0" encoding="UTF-8" standalone="no"?>
<svg
   inkscape:version="1.3.2 (091e20ef0f, 2023-11-25, custom)"
   sodipodi:docname="brand-text-vertical.svg"
   id="Layer_1"
   data-name="Layer 1"
   viewBox="0 0 132.59641 66.165591"
   version="1.1"
   width="132.59641"
   height="66.165588"
   xmlns:inkscape="http://www.inkscape.org/namespaces/inkscape"
   xmlns:sodipodi="http://sodipodi.sourceforge.net/DTD/sodipodi-0.dtd"
   xmlns="http://www.w3.org/2000/svg"
   xmlns:svg="http://www.w3.org/2000/svg"
   xmlns:rdf="http://www.w3.org/1999/02/22-rdf-syntax-ns#"
   xmlns:cc="http://creativecommons.org/ns#"
   xmlns:dc="http://purl.org/dc/elements/1.1/">
  <sodipodi:namedview
     inkscape:current-layer="Layer_1"
     inkscape:window-maximized="0"
     inkscape:window-y="23"
     inkscape:window-x="26"
     inkscape:cy="30.779211"
     inkscape:cx="66.461305"
     inkscape:zoom="7.3426184"
     showgrid="false"
     id="namedview14"
     inkscape:window-height="1216"
     inkscape:window-width="2164"
     inkscape:pageshadow="2"
     inkscape:pageopacity="0"
     guidetolerance="10"
     gridtolerance="10"
     objecttolerance="10"
     borderopacity="1"
     bordercolor="#666666"
     pagecolor="#ffffff"
     inkscape:showpageshadow="2"
     inkscape:pagecheckerboard="0"
     inkscape:deskcolor="#d1d1d1" />
  <metadata
     id="metadata25">
    <rdf:RDF>
      <cc:Work
         rdf:about="">
        <dc:format>image/svg+xml</dc:format>
        <dc:type
           rdf:resource="http://purl.org/dc/dcmitype/StillImage" />
        <dc:title>Openscript_main_logo</dc:title>
      </cc:Work>
    </rdf:RDF>
  </metadata>
  <defs
     id="defs4">
    <style
       id="style2">.cls-1{fill:#539350;}.cls-2{font-size:19.8px;fill:#221f20;font-family:2MASSJ1808-Normal, &quot;2MASS J1808&quot;;}.cls-3{letter-spacing:0em;}.cls-4{letter-spacing:-0.02em;}</style>
  </defs>
  <title
     id="title6">Openscript_main_logo</title>
  <path
     class="cls-1"
     d="m 70.159227,1.0435947 c -14.22,-3.3 -27.46,1.49 -29.61,10.6500003 -2.15,9.16 7.67,19.3 21.89,22.6 0.79,0.18 1.57,0.33 2.34,0.47 l -8.73,-15.3 2.25,-1.28 8.19,14.35 v -20.55 h 2.59 v 20.62 l 6.62,-11.74 2.26,1.27 -7.44,13.19 c 10.86,0.26 19.81,-4.27 21.53,-11.67 2.14,-9.18 -7.66,-19.3000003 -21.89,-22.6100003 z"
     id="path8" />
  <path
     class="cls-1"
     d="M 69.079227,35.263595 Z"
     id="path10" />
  <g
     class="cls-2"
     style="font-size:19.8px;font-family:'2unknown', '2MASS J1808';fill:#221f20"
     id="text20"
     aria-label="openscript"
     transform="translate(-23.300773,-23.466405)">
    <path
       id="path935"
       style="font-size:19.8px;font-family:'2unknown', '2MASS J1808';fill:#221f20"
       d="m 30.349573,72.485198 c -4.0392,0 -7.0488,2.5146 -7.0488,6.375599 0,3.8412 3.0096,6.3756 7.0488,6.3756 4.019399,0 7.048799,-2.5344 7.048799,-6.3756 0,-3.860999 -3.0294,-6.375599 -7.048799,-6.375599 z m 0,10.493999 c -2.5146,0 -4.3758,-1.5444 -4.3758,-4.1184 0,-2.593799 1.8612,-4.118399 4.3758,-4.118399 2.4948,0 4.375799,1.5246 4.375799,4.118399 0,2.574 -1.880999,4.1184 -4.375799,4.1184 z" />
    <path
       id="path937"
       style="letter-spacing:0em"
       d="m 53.929772,78.860797 c 0,-3.880799 -2.633399,-6.375599 -6.712199,-6.375599 -1.5246,0 -3.1482,0.5742 -4.1778,1.782 v -1.4058 h -2.574 v 16.770599 h 2.574 v -6.1578 c 1.0296,1.188 2.6532,1.7622 4.1778,1.7622 3.9402,0 6.712199,-2.5542 6.712199,-6.3756 z m -2.672999,0 c 0,2.5542 -1.9206,4.1184 -4.3164,4.1184 -2.5542,0 -4.0986,-1.2078 -4.0986,-4.1184 0,-2.910599 1.5444,-4.118399 4.0986,-4.118399 2.5344,0 4.3164,1.5048 4.3164,4.118399 z" />
    <path
       id="path939"
       d="m 68.876774,79.118197 c 0,-4.415399 -2.4948,-6.632999 -6.1776,-6.632999 -3.3462,0 -6.0984,2.5344 -6.0984,6.375599 0,3.6036 2.7126,6.3756 6.6132,6.3756 1.9008,0 3.366,-0.3366 4.6134,-0.9702 v -2.3364 c -1.5642,0.891 -3.2076,1.1088 -4.6332,1.1088 -2.178,0 -3.7422,-1.3464 -4.059,-3.4452 h 9.7416 z m -9.6426,-1.564199 c 0.5148,-1.9206 1.881,-2.8908 3.465,-2.8908 2.1186,0 3.3264,1.0296 3.663,2.8908 z" />
    <path
       id="path941"
       d="m 83.667335,84.879997 v -7.959599 c 0,-2.7918 -1.8216,-4.4352 -5.1282,-4.4352 -1.3662,0 -3.0096,0.5346 -4.0194,1.8216 v -1.4454 h -2.574 v 12.018599 h 2.574 v -6.870599 c 0,-2.0394 1.5048,-3.267 4.0194,-3.267 1.9404,0 2.5542,0.8118 2.5542,2.475 v 7.662599 z" />
    <path
       id="path943"
       d="m 92.616921,77.613398 c -2.257199,-0.693 -3.108599,-1.0494 -3.108599,-1.8612 0,-0.7722 1.2276,-1.089 2.870999,-1.089 1.8018,0 3.3066,0.4752 4.2768,1.1682 v -2.4156 c -1.089,-0.6138 -2.673,-0.9306 -4.3164,-0.9306 -3.504599,0 -5.464799,1.2078 -5.464799,3.267 0,2.3958 2.2572,3.346199 4.2768,3.920399 2.138399,0.594 3.425399,1.0098 3.425399,2.079 0,0.8514 -0.8118,1.3068 -3.088799,1.3068 -1.8414,0 -3.2868,-0.4158 -4.653,-1.188 v 2.3958 c 0.891,0.4554 2.4354,0.9702 4.653,0.9702 3.880799,0 5.722199,-1.2474 5.722199,-3.4848 0,-2.772 -2.3958,-3.464999 -4.5936,-4.138199 z" />
    <path
       id="path945"
       d="m 106.89269,72.485198 c -4.2768,0 -7.1082,2.376 -7.1082,6.375599 0,3.8016 2.9304,6.3756 7.1082,6.3756 1.3464,0 2.8908,-0.3366 3.96,-0.9504 v -2.4552 c -1.2474,0.7722 -2.6334,1.1484 -3.96,1.1484 -2.5146,0 -4.4352,-1.4652 -4.4352,-4.1184 0,-2.692799 1.881,-4.118399 4.4352,-4.118399 1.5444,0 3.069,0.5148 3.96,1.1484 v -2.4354 c -0.891,-0.5544 -2.376,-0.9702 -3.96,-0.9702 z" />
    <path
       id="path947"
       d="m 120.25767,72.485198 c -1.3662,0 -2.9502,0.7128 -3.762,2.0592 v -1.683 h -2.57399 v 12.018599 h 2.57399 v -6.3954 c 0,-2.217599 1.2276,-3.623399 3.7422,-3.623399 0.8118,0 1.5048,0.2376 1.9602,0.495 v -2.4948 c -0.495,-0.2178 -0.99,-0.3762 -1.9404,-0.3762 z" />
    <path
       id="path949"
       d="m 127.60346,69.416198 c 0,-0.8712 -0.693,-1.5642 -1.5444,-1.5642 -0.8712,0 -1.5642,0.693 -1.5642,1.5642 0,0.8514 0.693,1.5444 1.5642,1.5444 0.8514,0 1.5444,-0.693 1.5444,-1.5444 z m -2.8314,15.463799 h 2.574 V 72.861398 h -2.574 z" />
    <path
       id="path951"
       style="letter-spacing:-0.02em"
       d="m 144.45978,78.860797 c 0,-3.880799 -2.6334,-6.375599 -6.7122,-6.375599 -1.5246,0 -3.1482,0.5742 -4.1778,1.782 v -1.4058 h -2.574 v 16.770599 h 2.574 v -6.1578 c 1.0296,1.188 2.6532,1.7622 4.1778,1.7622 3.9402,0 6.7122,-2.5542 6.7122,-6.3756 z m -2.673,0 c 0,2.5542 -1.9206,4.1184 -4.3164,4.1184 -2.5542,0 -4.0986,-1.2078 -4.0986,-4.1184 0,-2.910599 1.5444,-4.118399 4.0986,-4.118399 2.5344,0 4.3164,1.5048 4.3164,4.118399 z" />
    <path
       id="path953"
       d="m 152.84798,82.979197 c -1.3266,0 -1.9404,-0.693 -1.9404,-1.9998 v -5.900399 h 4.257 v -2.2176 h -4.257 v -2.7918 h -2.574 v 2.7918 h -2.3958 v 2.2176 h 2.3958 v 5.781599 c 0,2.9106 1.4256,4.3758 4.2768,4.3758 1.5444,0 2.376,-0.2772 3.2868,-0.7326 v -2.4948 c -0.8316,0.5544 -1.8216,0.9702 -3.0492,0.9702 z" />
  </g>
</svg>
