<?xml version="1.0" encoding="UTF-8"?>
<svg data-name="Layer 1" version="1.1" viewBox="0 0 160.43 23.926" xmlns="http://www.w3.org/2000/svg">
 <defs>
  <style>.cls-1{fill:#FFFFFF;}.cls-2{fill:#539350;}</style>
 </defs>
 <title>openscript GmbH Logo</title>
 <path class="cls-1" d="m56.836 14.466c0 3.36-2.65 5.57-6.16 5.57s-6.13-2.21-6.13-5.57 2.63-5.57 6.16-5.57 6.13 2.2 6.13 5.57zm-2.34 0a3.83 3.83 0 1 0-3.82 3.6 3.51 3.51 0 0 0 3.87-3.6z"/>
 <path class="cls-1" d="m65.416 20.036a4.86 4.86 0 0 1-3.65-1.49v5.38h-2.22v-14.7h2.25v1.22a4.83 4.83 0 0 1 3.65-1.55c3.57 0 5.87 2.18 5.87 5.57s-2.46 5.57-5.9 5.57zm-0.24-9.17c-2.23 0-3.58 1.06-3.58 3.6s1.35 3.6 3.58 3.6a3.54 3.54 0 0 0 3.77-3.6 3.44 3.44 0 0 0-3.77-3.6z"/>
 <path class="cls-1" d="m84.346 15.106h-8.51a3.41 3.41 0 0 0 3.55 3 8.05 8.05 0 0 0 4-1v2a8.61 8.61 0 0 1-4 0.85 5.5 5.5 0 0 1-5.78-5.57 5.3 5.3 0 0 1 5.33-5.57c3.22 0 5.4 1.94 5.4 5.79zm-2.2-1.78a2.88 2.88 0 0 0-3.2-2.53 3.09 3.09 0 0 0-3 2.53z"/>
 <path class="cls-1" d="m95.026 19.726v-6.7c0-1.45-0.54-2.16-2.23-2.16-2.2 0-3.51 1.07-3.51 2.85v6h-2.25v-10.49h2.25v1.26a4.48 4.48 0 0 1 3.51-1.59c2.89 0 4.48 1.43 4.48 3.87v7z"/>
 <path class="cls-1" d="m109.12 16.996c0 1.95-1.61 3-5 3a9 9 0 0 1-4.07-0.85v-2.05a7.94 7.94 0 0 0 4.07 1c2 0 2.69-0.4 2.69-1.14 0-0.94-1.12-1.3-3-1.82s-3.74-1.33-3.74-3.43c0-1.8 1.72-2.85 4.78-2.85a7.94 7.94 0 0 1 3.77 0.81v2.11a6.57 6.57 0 0 0-3.74-1c-1.43 0-2.5 0.28-2.5 1s0.74 1 2.71 1.63 4.03 1.14 4.03 3.59z"/>
 <path class="cls-1" d="m121.04 9.7462v2.12a6.39 6.39 0 0 0-3.46-1c-2.23 0-3.88 1.25-3.88 3.6s1.68 3.6 3.88 3.6a6.56 6.56 0 0 0 3.46-1v2.15a7.34 7.34 0 0 1-3.46 0.83c-3.65 0-6.21-2.25-6.21-5.57 0-3.5 2.47-5.57 6.21-5.57a6.89 6.89 0 0 1 3.46 0.84z"/>
 <path class="cls-1" d="m130.96 9.2262v2.18a3.53 3.53 0 0 0-1.72-0.44 2.92 2.92 0 0 0-3.27 3.17v5.59h-2.25v-10.5h2.25v1.47a3.94 3.94 0 0 1 3.29-1.8 3.8 3.8 0 0 1 1.7 0.33z"/>
 <path class="cls-1" d="m134.33 7.5462a1.36 1.36 0 1 1 1.35-1.34 1.35 1.35 0 0 1-1.35 1.34zm-1.12 1.67h2.25v10.5h-2.25z"/>
 <path class="cls-1" d="m144.55 20.036a4.86 4.86 0 0 1-3.64-1.49v5.38h-2.25v-14.7h2.25v1.22a4.83 4.83 0 0 1 3.64-1.55c3.56 0 5.86 2.18 5.86 5.57s-2.41 5.57-5.86 5.57zm-0.24-9.17c-2.24 0-3.59 1.06-3.59 3.6s1.35 3.6 3.59 3.6a3.54 3.54 0 0 0 3.77-3.6 3.44 3.44 0 0 0-3.76-3.6z"/>
 <path class="cls-1" d="m160.43 17.216v2.18a5.71 5.71 0 0 1-2.88 0.64c-2.49 0-3.73-1.28-3.73-3.82v-5.06h-2.1v-1.93h2.1v-2.44h2.25v2.44h3.72v1.93h-3.72v5.16c0 1.14 0.53 1.75 1.69 1.75a4.74 4.74 0 0 0 2.67-0.85z"/>
 <path class="cls-2" d="m19.016 0.66615c-9-2.1-17.47 0.93-18.83 6.77-1.36 5.84 4.88 12.27 13.92 14.37 0.41 0.1 0.82 0.17 1.23 0.25l-5.43-9.61 1.78-1 4.8 8.49v-12.32h2v12.36l3.83-6.79 1.79 1-4.67 8.28c6.8 0.09 12.38-2.77 13.46-7.42 1.4-5.84-4.83-12.28-13.88-14.38z"/>
</svg>
