<?xml version="1.0" encoding="UTF-8"?>
<!-- Created with Inkscape (http://www.inkscape.org/) -->
<svg width="42.512mm" height="5.9552mm" version="1.1" viewBox="0 0 42.512 5.9552" xmlns="http://www.w3.org/2000/svg">
 <g transform="translate(-56.885 -103.98)" clip-rule="evenodd" fill-rule="evenodd" stroke-linejoin="round" stroke-miterlimit="2" stroke-width=".26458">
  <g fill="#f9f9f9">
   <path class="cls-1" d="m71.961 107.46c0.02728 0.88859-0.65559 1.4946-1.5838 1.5231-0.92825 0.0285-1.6391-0.53468-1.6664-1.4233-0.02728-0.88859 0.6503-1.4944 1.5838-1.5231 0.93354-0.0287 1.639 0.53204 1.6664 1.4233zm-0.61883 0.019a1.0134 1.0134 0 1 0-0.981 0.98307 0.92869 0.92869 0 0 0 0.99422-0.98347z"/>
   <path class="cls-1" d="m74.275 108.86a1.2859 1.2859 0 0 1-0.97737-0.36441l0.04368 1.4228-0.5871 0.018-0.11936-3.8875 0.59503-0.0183 0.0099 0.32264a1.2779 1.2779 0 0 1 0.95269-0.43955c0.94412-0.029 1.5701 0.52885 1.5976 1.4254 0.02753 0.89651-0.60534 1.493-1.5151 1.5209zm-0.13793-2.4231c-0.58974 0.0181-0.93816 0.3094-0.91753 0.98112 0.02062 0.67173 0.38625 0.94109 0.97599 0.92299a0.93662 0.93662 0 0 0 0.96778-0.98267 0.91017 0.91017 0 0 0-1.0262-0.92144z"/>
   <path class="cls-1" d="m79.241 107.4-2.2505 0.0691a0.90223 0.90223 0 0 0 0.96319 0.76455 2.1299 2.1299 0 0 0 1.0497-0.29694l0.01624 0.52892a2.2781 2.2781 0 0 1-1.0509 0.25727 1.4552 1.4552 0 0 1-1.5738-1.4261 1.4023 1.4023 0 0 1 1.3643-1.5163c0.85156-0.0262 1.4438 0.4692 1.4751 1.4874zm-0.59626-0.45287a0.762 0.762 0 0 0-0.86681-0.6431 0.81756 0.81756 0 0 0-0.77283 0.69344z"/>
   <path class="cls-1" d="m82.103 108.54-0.0544-1.7719c-0.01177-0.38347-0.16035-0.56685-0.60728-0.55312-0.58181 0.0179-0.91956 0.31147-0.90511 0.7822l0.04872 1.5868-0.59503 0.0183-0.08518-2.7742 0.59503-0.0183 0.01023 0.33322a1.1853 1.1853 0 0 1 0.91534-0.44899c0.76429-0.0235 1.1964 0.3418 1.2162 0.98708l0.05684 1.8512z"/>
   <path class="cls-1" d="m85.809 107.7c0.01583 0.51569-0.40142 0.80645-1.2979 0.83397a2.3812 2.3812 0 0 1-1.0832-0.19174l-0.01665-0.54214a2.1008 2.1008 0 0 0 1.0845 0.23141c0.52892-0.0162 0.70815-0.12762 0.70214-0.32332-0.0076-0.24859-0.30675-0.3347-0.80815-0.45696-0.5014-0.12225-0.99988-0.32136-1.0169-0.87672-0.01461-0.47603 0.43173-0.76768 1.241-0.79252a2.1008 2.1008 0 0 1 1.0036 0.1836l0.01713 0.55801a1.7383 1.7383 0 0 0-0.9972-0.2341c-0.37818 0.0116-0.65887 0.0944-0.65303 0.28476 0.0058 0.19041 0.20382 0.25845 0.72992 0.40907 0.5261 0.15061 1.075 0.26876 1.0949 0.91668z"/>
   <path class="cls-1" d="m88.902 105.69 0.01721 0.56065a1.6907 1.6907 0 0 0-0.92315-0.23636c-0.58974 0.0181-1.016 0.36208-0.99687 0.98355 0.01908 0.62148 0.47352 0.93841 1.0553 0.92055a1.7357 1.7357 0 0 0 0.90691-0.29255l0.01746 0.56858a1.942 1.942 0 0 1-0.90829 0.2476c-0.96527 0.0296-1.6606-0.54461-1.6875-1.4226-0.02842-0.92561 0.60799-1.4931 1.5971-1.5235a1.823 1.823 0 0 1 0.92185 0.19405z"/>
   <path class="cls-1" d="m91.521 105.47 0.0177 0.57652a0.93398 0.93398 0 0 0-0.45844-0.10239 0.77258 0.77258 0 0 0-0.83904 0.86488l0.04539 1.4783-0.59503 0.0183-0.08526-2.7768 0.59503-0.0183 0.01194 0.38875a1.0425 1.0425 0 0 1 0.85545-0.50274 1.0054 1.0054 0 0 1 0.45226 0.0735z"/>
   <path class="cls-1" d="m92.399 105a0.35983 0.35983 0 1 1 0.34614-0.36534 0.35719 0.35719 0 0 1-0.34614 0.36534zm-0.28263 0.45074 0.59503-0.0183 0.08526 2.7768-0.59503 0.0183z"/>
   <path class="cls-1" d="m95.203 108.22a1.2859 1.2859 0 0 1-0.97473-0.36449l0.04368 1.4228-0.59503 0.0183-0.11936-3.8875 0.59503-0.0183 0.0099 0.32264a1.2779 1.2779 0 0 1 0.95004-0.43947c0.94147-0.0289 1.5674 0.52894 1.595 1.4254 0.02753 0.89652-0.59212 1.4926-1.5045 1.5206zm-0.13793-2.4231c-0.59239 0.0182-0.9408 0.30948-0.92018 0.9812 0.02062 0.67173 0.38625 0.94109 0.97864 0.92291a0.93662 0.93662 0 0 0 0.96778-0.98267 0.91017 0.91017 0 0 0-1.0236-0.92152z"/>
   <path class="cls-1" d="m99.38 107.34 0.0177 0.57652a1.5108 1.5108 0 0 1-0.75644 0.19264c-0.6585 0.0202-0.99682-0.30822-1.0174-0.97994l-0.04109-1.3382-0.55536 0.0171-0.01567-0.51041 0.55536-0.017-0.01981-0.64528 0.59503-0.0183 0.01981 0.64528 0.98379-0.0302 0.01567 0.5104-0.98379 0.0302 0.0419 1.3646c0.0093 0.30149 0.15437 0.4585 0.46114 0.44908a1.2541 1.2541 0 0 0 0.6992-0.24647z"/>
  </g>
  <path class="cls-2" d="m61.847 104.11c-2.3972-0.48228-4.6125 0.3878-4.9248 1.9433-0.31224 1.5555 1.3902 3.2053 3.7979 3.6872 0.10924 0.0231 0.21824 0.0383 0.32731 0.0561l-1.514-2.4974 0.46262-0.27891 1.3383 2.2063-0.10004-3.2581 0.52892-0.0162 0.10036 3.2687 0.95774-1.8268 0.4815 0.24993-1.1678 2.2276c1.799-0.0314 3.2515-0.83307 3.4994-2.0716 0.32282-1.5558-1.377-3.2083-3.7874-3.6902z" fill="#539350"/>
 </g>
</svg>
